<svg height="2814" width="720" xmlns="http://www.w3.org/2000/svg">
<rect height="2814" fill="#555" width="720"></rect>
<text fill="#7f7" font-family="Courier New" font-size="12" xml:space="preserve">
<tspan x="10" y="26">20 megabytes installed</tspan>
<tspan x="10" y="42"></tspan>
<tspan x="10" y="58">node_modules</tspan>
<tspan x="10" y="74">└─┬ preen@1.2.0 </tspan>
<tspan x="10" y="90">  ├── async@0.2.10 </tspan>
<tspan x="10" y="106">  ├─┬ bower@0.10.0 </tspan>
<tspan x="10" y="122">  │ ├── abbrev@1.0.9 </tspan>
<tspan x="10" y="138">  │ ├── archy@0.0.2 </tspan>
<tspan x="10" y="154">  │ ├── colors@0.6.2 </tspan>
<tspan x="10" y="170">  │ ├─┬ fstream@0.1.31 </tspan>
<tspan x="10" y="186">  │ │ ├─┬ graceful-fs@3.0.11 </tspan>
<tspan x="10" y="202">  │ │ │ └── natives@1.1.0 </tspan>
<tspan x="10" y="218">  │ │ ├── inherits@2.0.3 </tspan>
<tspan x="10" y="234">  │ │ └── mkdirp@0.5.1 </tspan>
<tspan x="10" y="250">  │ ├─┬ glob@3.1.21 </tspan>
<tspan x="10" y="266">  │ │ ├── graceful-fs@1.2.3 </tspan>
<tspan x="10" y="282">  │ │ └── inherits@1.0.2 </tspan>
<tspan x="10" y="298">  │ ├── hogan.js@2.0.0 </tspan>
<tspan x="10" y="314">  │ ├── lodash@1.0.2 </tspan>
<tspan x="10" y="330">  │ ├── mkdirp@0.3.5 </tspan>
<tspan x="10" y="346">  │ ├── nopt@2.0.0 </tspan>
<tspan x="10" y="362">  │ ├─┬ promptly@0.1.0 </tspan>
<tspan x="10" y="378">  │ │ └─┬ read@1.0.7 </tspan>
<tspan x="10" y="394">  │ │   └── mute-stream@0.0.7 </tspan>
<tspan x="10" y="410">  │ ├─┬ rc@0.3.5 </tspan>
<tspan x="10" y="426">  │ │ ├── deep-extend@0.2.11 </tspan>
<tspan x="10" y="442">  │ │ └── ini@1.1.0 </tspan>
<tspan x="10" y="458">  │ ├─┬ read-package-json@0.1.13 </tspan>
<tspan x="10" y="474">  │ │ ├── graceful-fs@1.2.3 </tspan>
<tspan x="10" y="490">  │ │ ├── lru-cache@2.0.4 </tspan>
<tspan x="10" y="506">  │ │ ├─┬ npmlog@0.1.1 </tspan>
<tspan x="10" y="522">  │ │ │ └── ansi@0.3.1 </tspan>
<tspan x="10" y="538">  │ │ ├── semver@1.1.4 </tspan>
<tspan x="10" y="554">  │ │ └── slide@1.1.6 </tspan>
<tspan x="10" y="570">  │ ├─┬ request@2.11.4 </tspan>
<tspan x="10" y="586">  │ │ ├─┬ form-data@0.0.3 </tspan>
<tspan x="10" y="602">  │ │ │ ├── async@0.1.9 </tspan>
<tspan x="10" y="618">  │ │ │ └─┬ combined-stream@0.0.3 </tspan>
<tspan x="10" y="634">  │ │ │   └── delayed-stream@0.0.5 </tspan>
<tspan x="10" y="650">  │ │ └── mime@1.2.7 </tspan>
<tspan x="10" y="666">  │ ├─┬ rimraf@2.0.3 </tspan>
<tspan x="10" y="682">  │ │ └── graceful-fs@1.1.14 </tspan>
<tspan x="10" y="698">  │ ├── semver@2.0.11 </tspan>
<tspan x="10" y="714">  │ ├── stable@0.1.6 </tspan>
<tspan x="10" y="730">  │ ├─┬ tar@0.1.20 </tspan>
<tspan x="10" y="746">  │ │ └── block-stream@0.0.9 </tspan>
<tspan x="10" y="762">  │ ├─┬ tmp@0.0.31 </tspan>
<tspan x="10" y="778">  │ │ └── os-tmpdir@1.0.2 </tspan>
<tspan x="10" y="794">  │ ├─┬ unzip@0.1.7 </tspan>
<tspan x="10" y="810">  │ │ ├─┬ binary@0.3.0 </tspan>
<tspan x="10" y="826">  │ │ │ ├── buffers@0.1.1 </tspan>
<tspan x="10" y="842">  │ │ │ └─┬ chainsaw@0.1.0 </tspan>
<tspan x="10" y="858">  │ │ │   └── traverse@0.3.9 </tspan>
<tspan x="10" y="874">  │ │ ├── match-stream@0.0.1 </tspan>
<tspan x="10" y="890">  │ │ ├─┬ pullstream@0.4.1 </tspan>
<tspan x="10" y="906">  │ │ │ ├── over@0.0.5 </tspan>
<tspan x="10" y="922">  │ │ │ └── slice-stream@1.0.0 </tspan>
<tspan x="10" y="938">  │ │ ├─┬ readable-stream@1.0.34 </tspan>
<tspan x="10" y="954">  │ │ │ ├── core-util-is@1.0.2 </tspan>
<tspan x="10" y="970">  │ │ │ ├── isarray@0.0.1 </tspan>
<tspan x="10" y="986">  │ │ │ └── string_decoder@0.10.31 </tspan>
<tspan x="10" y="1002">  │ │ └── setimmediate@1.0.5 </tspan>
<tspan x="10" y="1018">  │ ├─┬ update-notifier@0.1.10 </tspan>
<tspan x="10" y="1034">  │ │ ├─┬ chalk@0.4.0 </tspan>
<tspan x="10" y="1050">  │ │ │ ├── ansi-styles@1.0.0 </tspan>
<tspan x="10" y="1066">  │ │ │ ├── has-color@0.1.7 </tspan>
<tspan x="10" y="1082">  │ │ │ └── strip-ansi@0.1.1 </tspan>
<tspan x="10" y="1098">  │ │ ├─┬ configstore@0.3.2 </tspan>
<tspan x="10" y="1114">  │ │ │ ├─┬ js-yaml@3.8.3 </tspan>
<tspan x="10" y="1130">  │ │ │ │ ├─┬ argparse@1.0.9 </tspan>
<tspan x="10" y="1146">  │ │ │ │ │ └── sprintf-js@1.0.3 </tspan>
<tspan x="10" y="1162">  │ │ │ │ └── esprima@3.1.3 </tspan>
<tspan x="10" y="1178">  │ │ │ ├── mkdirp@0.5.1 </tspan>
<tspan x="10" y="1194">  │ │ │ ├── object-assign@2.1.1 </tspan>
<tspan x="10" y="1210">  │ │ │ ├─┬ osenv@0.1.4 </tspan>
<tspan x="10" y="1226">  │ │ │ │ └── os-homedir@1.0.2 </tspan>
<tspan x="10" y="1242">  │ │ │ ├── user-home@1.1.1 </tspan>
<tspan x="10" y="1258">  │ │ │ ├── uuid@2.0.3 </tspan>
<tspan x="10" y="1274">  │ │ │ └── xdg-basedir@1.0.1 </tspan>
<tspan x="10" y="1290">  │ │ ├─┬ request@2.81.0 </tspan>
<tspan x="10" y="1306">  │ │ │ ├── aws-sign2@0.6.0 </tspan>
<tspan x="10" y="1322">  │ │ │ ├── aws4@1.6.0 </tspan>
<tspan x="10" y="1338">  │ │ │ ├── caseless@0.12.0 </tspan>
<tspan x="10" y="1354">  │ │ │ ├─┬ combined-stream@1.0.5 </tspan>
<tspan x="10" y="1370">  │ │ │ │ └── delayed-stream@1.0.0 </tspan>
<tspan x="10" y="1386">  │ │ │ ├── extend@3.0.0 </tspan>
<tspan x="10" y="1402">  │ │ │ ├── forever-agent@0.6.1 </tspan>
<tspan x="10" y="1418">  │ │ │ ├─┬ form-data@2.1.4 </tspan>
<tspan x="10" y="1434">  │ │ │ │ └── asynckit@0.4.0 </tspan>
<tspan x="10" y="1450">  │ │ │ ├─┬ har-validator@4.2.1 </tspan>
<tspan x="10" y="1466">  │ │ │ │ ├─┬ ajv@4.11.7 </tspan>
<tspan x="10" y="1482">  │ │ │ │ │ ├── co@4.6.0 </tspan>
<tspan x="10" y="1498">  │ │ │ │ │ └─┬ json-stable-stringify@1.0.1 </tspan>
<tspan x="10" y="1514">  │ │ │ │ │   └── jsonify@0.0.0 </tspan>
<tspan x="10" y="1530">  │ │ │ │ └── har-schema@1.0.5 </tspan>
<tspan x="10" y="1546">  │ │ │ ├─┬ hawk@3.1.3 </tspan>
<tspan x="10" y="1562">  │ │ │ │ ├── boom@2.10.1 </tspan>
<tspan x="10" y="1578">  │ │ │ │ ├── cryptiles@2.0.5 </tspan>
<tspan x="10" y="1594">  │ │ │ │ ├── hoek@2.16.3 </tspan>
<tspan x="10" y="1610">  │ │ │ │ └── sntp@1.0.9 </tspan>
<tspan x="10" y="1626">  │ │ │ ├─┬ http-signature@1.1.1 </tspan>
<tspan x="10" y="1642">  │ │ │ │ ├── assert-plus@0.2.0 </tspan>
<tspan x="10" y="1658">  │ │ │ │ ├─┬ jsprim@1.4.0 </tspan>
<tspan x="10" y="1674">  │ │ │ │ │ ├── assert-plus@1.0.0 </tspan>
<tspan x="10" y="1690">  │ │ │ │ │ ├── extsprintf@1.0.2 </tspan>
<tspan x="10" y="1706">  │ │ │ │ │ ├── json-schema@0.2.3 </tspan>
<tspan x="10" y="1722">  │ │ │ │ │ └── verror@1.3.6 </tspan>
<tspan x="10" y="1738">  │ │ │ │ └─┬ sshpk@1.13.0 </tspan>
<tspan x="10" y="1754">  │ │ │ │   ├── asn1@0.2.3 </tspan>
<tspan x="10" y="1770">  │ │ │ │   ├── assert-plus@1.0.0 </tspan>
<tspan x="10" y="1786">  │ │ │ │   ├── bcrypt-pbkdf@1.0.1 </tspan>
<tspan x="10" y="1802">  │ │ │ │   ├─┬ dashdash@1.14.1 </tspan>
<tspan x="10" y="1818">  │ │ │ │   │ └── assert-plus@1.0.0 </tspan>
<tspan x="10" y="1834">  │ │ │ │   ├── ecc-jsbn@0.1.1 </tspan>
<tspan x="10" y="1850">  │ │ │ │   ├─┬ getpass@0.1.6 </tspan>
<tspan x="10" y="1866">  │ │ │ │   │ └── assert-plus@1.0.0 </tspan>
<tspan x="10" y="1882">  │ │ │ │   ├── jodid25519@1.0.2 </tspan>
<tspan x="10" y="1898">  │ │ │ │   ├── jsbn@0.1.1 </tspan>
<tspan x="10" y="1914">  │ │ │ │   └── tweetnacl@0.14.5 </tspan>
<tspan x="10" y="1930">  │ │ │ ├── is-typedarray@1.0.0 </tspan>
<tspan x="10" y="1946">  │ │ │ ├── isstream@0.1.2 </tspan>
<tspan x="10" y="1962">  │ │ │ ├── json-stringify-safe@5.0.1 </tspan>
<tspan x="10" y="1978">  │ │ │ ├─┬ mime-types@2.1.15 </tspan>
<tspan x="10" y="1994">  │ │ │ │ └── mime-db@1.27.0 </tspan>
<tspan x="10" y="2010">  │ │ │ ├── oauth-sign@0.8.2 </tspan>
<tspan x="10" y="2026">  │ │ │ ├── performance-now@0.2.0 </tspan>
<tspan x="10" y="2042">  │ │ │ ├── qs@6.4.0 </tspan>
<tspan x="10" y="2058">  │ │ │ ├── safe-buffer@5.0.1 </tspan>
<tspan x="10" y="2074">  │ │ │ ├── stringstream@0.0.5 </tspan>
<tspan x="10" y="2090">  │ │ │ ├─┬ tough-cookie@2.3.2 </tspan>
<tspan x="10" y="2106">  │ │ │ │ └── punycode@1.4.1 </tspan>
<tspan x="10" y="2122">  │ │ │ ├── tunnel-agent@0.6.0 </tspan>
<tspan x="10" y="2138">  │ │ │ └── uuid@3.0.1 </tspan>
<tspan x="10" y="2154">  │ │ └── semver@2.3.2 </tspan>
<tspan x="10" y="2170">  │ └── which@1.0.9 </tspan>
<tspan x="10" y="2186">  ├─┬ fs.extra@1.2.1 </tspan>
<tspan x="10" y="2202">  │ ├─┬ fs-extra@0.6.4 </tspan>
<tspan x="10" y="2218">  │ │ ├── jsonfile@1.0.1 </tspan>
<tspan x="10" y="2234">  │ │ ├── ncp@0.4.2 </tspan>
<tspan x="10" y="2250">  │ │ └── rimraf@2.2.8 </tspan>
<tspan x="10" y="2266">  │ └─┬ walk@2.2.1 </tspan>
<tspan x="10" y="2282">  │   └─┬ forEachAsync@2.2.1 </tspan>
<tspan x="10" y="2298">  │     └── sequence@2.2.1 </tspan>
<tspan x="10" y="2314">  ├─┬ minimatch@0.2.14 </tspan>
<tspan x="10" y="2330">  │ ├── lru-cache@2.7.3 </tspan>
<tspan x="10" y="2346">  │ └── sigmund@1.0.1 </tspan>
<tspan x="10" y="2362">  ├─┬ optimist@0.6.1 </tspan>
<tspan x="10" y="2378">  │ ├── minimist@0.0.8 </tspan>
<tspan x="10" y="2394">  │ └── wordwrap@0.0.3 </tspan>
<tspan x="10" y="2410">  ├─┬ readdirp@0.3.3 </tspan>
<tspan x="10" y="2426">  │ └── graceful-fs@2.0.3 </tspan>
<tspan x="10" y="2442">  └─┬ winston@0.7.3 </tspan>
<tspan x="10" y="2458">    ├── cycle@1.0.3 </tspan>
<tspan x="10" y="2474">    ├── eyes@0.1.8 </tspan>
<tspan x="10" y="2490">    ├── pkginfo@0.3.1 </tspan>
<tspan x="10" y="2506">    ├─┬ request@2.16.6 </tspan>
<tspan x="10" y="2522">    │ ├── aws-sign@0.2.0 </tspan>
<tspan x="10" y="2538">    │ ├── cookie-jar@0.2.0 </tspan>
<tspan x="10" y="2554">    │ ├── forever-agent@0.2.0 </tspan>
<tspan x="10" y="2570">    │ ├─┬ form-data@0.0.10 </tspan>
<tspan x="10" y="2586">    │ │ └─┬ combined-stream@0.0.7 </tspan>
<tspan x="10" y="2602">    │ │   └── delayed-stream@0.0.5 </tspan>
<tspan x="10" y="2618">    │ ├─┬ hawk@0.10.2 </tspan>
<tspan x="10" y="2634">    │ │ ├── boom@0.3.8 </tspan>
<tspan x="10" y="2650">    │ │ ├── cryptiles@0.1.3 </tspan>
<tspan x="10" y="2666">    │ │ ├── hoek@0.7.6 </tspan>
<tspan x="10" y="2682">    │ │ └── sntp@0.1.4 </tspan>
<tspan x="10" y="2698">    │ ├── json-stringify-safe@3.0.0 </tspan>
<tspan x="10" y="2714">    │ ├── mime@1.2.11 </tspan>
<tspan x="10" y="2730">    │ ├── node-uuid@1.4.8 </tspan>
<tspan x="10" y="2746">    │ ├── oauth-sign@0.2.0 </tspan>
<tspan x="10" y="2762">    │ ├── qs@0.5.6 </tspan>
<tspan x="10" y="2778">    │ └── tunnel-agent@0.2.0 </tspan>
<tspan x="10" y="2794">    └── stack-trace@0.0.9</tspan>
</text>
</svg>
